<?xml version="1.0" encoding="utf-8"?>
<!-- Generator: Adobe Illustrator 21.0.2, SVG Export Plug-In . SVG Version: 6.00 Build 0)  -->
<svg version="1.1" id="Layer_1" xmlns="http://www.w3.org/2000/svg" xmlns:xlink="http://www.w3.org/1999/xlink" x="0px" y="0px"
	 viewBox="0 0 120 120" style="enable-background:new 0 0 120 120;" xml:space="preserve">
<style type="text/css">
	.st0{fill:#333333;}
	.st1{fill:#FFFFFF;}
</style>
<path class="st0" d="M101.8,120H18.3C8.2,120,0,111.8,0,101.8V18.3C0,8.2,8.2,0,18.3,0h83.5C111.8,0,120,8.2,120,18.3v83.5
	C120,111.8,111.8,120,101.8,120z"/>
<path class="st1" d="M75.5,64.5c12.8,15-2.2,38.7-23.4,38.7c-15.3,0-27.8-9.7-27.8-25.9C24.3,57.5,41.2,43.5,59,44
	c-1.3-2.6-2-5.3-2-8C57,25.8,64.3,18,74.3,18c8.9,0,16.6,5.3,16.6,14.7c0,8.1-6,12.4-6,12.4l-5.5-5.8c0.1,0,3.5-2.2,3.5-7.1
	c0-10.7-17.4-10.8-17.4,4.1c0,6.9,5.3,10.1,6.4,10.7c0,0.1,0.1,0.1,0.2,0.1l-3,5.3c-1.2-0.4-2.3-0.9-3.2-1.4
	c-15-5.4-32.9,7.8-32.9,25.9c0,11.4,10,18.4,19.8,18.4c14.4,0,24.6-16.6,16.7-26.7L75.5,64.5z"/>
</svg>
